<svg width="72" height="72" viewBox="0 0 24 24" fill="none" xmlns="http://www.w3.org/2000/svg" data-reactroot="">
<path fill="#221b38" d="M14.4629 8.12289L12.34 6H3C2.45 6 2 6.45 2 7V21C2 21.55 2.45 22 3 22H17C17.55 22 18 21.55 18 21V11.66L15.8771 9.53711L9.70711 15.7071C9.31658 16.0976 8.68342 16.0976 8.29289 15.7071C7.90237 15.3166 7.90237 14.6834 8.29289 14.2929L14.4629 8.12289Z" clip-rule="evenodd" fill-rule="evenodd" undefined="1"></path>
<path fill="#221b38" d="M15 2C14.4477 2 14 2.44772 14 3C14 3.55228 14.4477 4 15 4H18.5858L14.4629 8.12289L15.8771 9.53711L20 5.41421V9C20 9.55228 20.4477 10 21 10C21.5523 10 22 9.55228 22 9V3C22 2.72942 21.8925 2.48394 21.718 2.30391C21.7108 2.29651 21.7035 2.28922 21.6961 2.28205C21.6036 2.19229 21.498 2.12396 21.3856 2.07705C21.2669 2.02742 21.1367 2 21 2H15Z" clip-rule="evenodd" fill-rule="evenodd" undefined="1"></path>
</svg>
